<svg xmlns="http://www.w3.org/2000/svg" viewBox="0 0 1200 300" preserveAspectRatio="xMidYMid slice">
  <!-- Sky gradient: deep navy at top, bright aqua near horizon -->
  <defs>
    <linearGradient id="sky" x1="0" y1="0" x2="0" y2="1">
      <stop offset="0%" stop-color="#0d1b2a"/>
      <stop offset="40%" stop-color="#1a3a5c"/>
      <stop offset="75%" stop-color="#1a7a9a"/>
      <stop offset="100%" stop-color="#2ec4d6"/>
    </linearGradient>
    <linearGradient id="bldg1" x1="0" y1="0" x2="0" y2="1">
      <stop offset="0%" stop-color="#162535"/>
      <stop offset="100%" stop-color="#0d1520"/>
    </linearGradient>
    <linearGradient id="bldg2" x1="0" y1="0" x2="0" y2="1">
      <stop offset="0%" stop-color="#1e3448"/>
      <stop offset="100%" stop-color="#0f1e2e"/>
    </linearGradient>
  </defs>
  <!-- Sky -->
  <rect width="1200" height="300" fill="url(#sky)"/>
  <!-- Stars -->
  <circle cx="80" cy="25" r="1.2" fill="white" opacity="0.8"/>
  <circle cx="200" cy="40" r="0.9" fill="white" opacity="0.6"/>
  <circle cx="340" cy="18" r="1.1" fill="white" opacity="0.75"/>
  <circle cx="490" cy="30" r="0.8" fill="white" opacity="0.5"/>
  <circle cx="650" cy="15" r="1.3" fill="white" opacity="0.7"/>
  <circle cx="780" cy="35" r="0.9" fill="white" opacity="0.6"/>
  <circle cx="920" cy="22" r="1.0" fill="white" opacity="0.65"/>
  <circle cx="1050" cy="45" r="1.2" fill="white" opacity="0.55"/>
  <circle cx="1150" cy="12" r="0.8" fill="white" opacity="0.7"/>
  <!-- Moon -->
  <circle cx="1100" cy="55" r="22" fill="#f0e8c8" opacity="0.92"/>
  <circle cx="1110" cy="48" r="18" fill="#1a3a5c" opacity="0.4"/>
  <!-- Far background buildings (lighter, hazy) -->
  <rect x="0" y="170" width="60" height="130" fill="#1a3550" opacity="0.6"/>
  <rect x="55" y="145" width="40" height="155" fill="#1e3a56" opacity="0.55"/>
  <rect x="90" y="160" width="50" height="140" fill="#1a3050" opacity="0.5"/>
  <rect x="135" y="130" width="35" height="170" fill="#203a58" opacity="0.55"/>
  <rect x="165" y="155" width="55" height="145" fill="#1c3454" opacity="0.5"/>
  <!-- Mid buildings -->
  <rect x="0" y="185" width="70" height="115" fill="url(#bldg1)"/>
  <!-- windows -->
  <rect x="8" y="195" width="8" height="6" fill="#2ec4d6" opacity="0.6"/>
  <rect x="22" y="195" width="8" height="6" fill="#f5d26a" opacity="0.4"/>
  <rect x="36" y="195" width="8" height="6" fill="#2ec4d6" opacity="0.5"/>
  <rect x="8" y="210" width="8" height="6" fill="#f5d26a" opacity="0.35"/>
  <rect x="22" y="210" width="8" height="6" fill="#2ec4d6" opacity="0.45"/>
  <rect x="36" y="210" width="8" height="6" fill="#f5d26a" opacity="0.5"/>
  <rect x="8" y="225" width="8" height="6" fill="#2ec4d6" opacity="0.4"/>
  <rect x="36" y="225" width="8" height="6" fill="#f5d26a" opacity="0.35"/>

  <rect x="65" y="150" width="80" height="150" fill="url(#bldg2)"/>
  <rect x="73" y="160" width="10" height="8" fill="#f5d26a" opacity="0.5"/>
  <rect x="89" y="160" width="10" height="8" fill="#2ec4d6" opacity="0.55"/>
  <rect x="105" y="160" width="10" height="8" fill="#f5d26a" opacity="0.4"/>
  <rect x="73" y="178" width="10" height="8" fill="#2ec4d6" opacity="0.45"/>
  <rect x="89" y="178" width="10" height="8" fill="#f5d26a" opacity="0.5"/>
  <rect x="105" y="178" width="10" height="8" fill="#2ec4d6" opacity="0.4"/>
  <rect x="73" y="196" width="10" height="8" fill="#f5d26a" opacity="0.35"/>
  <rect x="105" y="196" width="10" height="8" fill="#f5d26a" opacity="0.45"/>
  <rect x="89" y="214" width="10" height="8" fill="#2ec4d6" opacity="0.5"/>
  <!-- Antenna -->
  <line x1="105" y1="150" x2="105" y2="130" stroke="#2a3f55" stroke-width="2"/>

  <rect x="140" y="130" width="55" height="170" fill="url(#bldg1)"/>
  <rect x="148" y="140" width="9" height="7" fill="#2ec4d6" opacity="0.6"/>
  <rect x="163" y="140" width="9" height="7" fill="#f5d26a" opacity="0.5"/>
  <rect x="178" y="140" width="9" height="7" fill="#2ec4d6" opacity="0.45"/>
  <rect x="148" y="157" width="9" height="7" fill="#f5d26a" opacity="0.4"/>
  <rect x="163" y="157" width="9" height="7" fill="#2ec4d6" opacity="0.5"/>
  <rect x="178" y="157" width="9" height="7" fill="#f5d26a" opacity="0.45"/>
  <rect x="148" y="174" width="9" height="7" fill="#2ec4d6" opacity="0.35"/>
  <rect x="178" y="174" width="9" height="7" fill="#2ec4d6" opacity="0.4"/>
  <rect x="163" y="191" width="9" height="7" fill="#f5d26a" opacity="0.5"/>
  <rect x="148" y="208" width="9" height="7" fill="#f5d26a" opacity="0.35"/>

  <rect x="190" y="165" width="45" height="135" fill="url(#bldg2)"/>
  <rect x="198" y="175" width="8" height="6" fill="#f5d26a" opacity="0.5"/>
  <rect x="212" y="175" width="8" height="6" fill="#2ec4d6" opacity="0.55"/>
  <rect x="220" y="175" width="8" height="6" fill="#f5d26a" opacity="0.4"/>
  <rect x="198" y="190" width="8" height="6" fill="#2ec4d6" opacity="0.45"/>
  <rect x="212" y="190" width="8" height="6" fill="#f5d26a" opacity="0.5"/>

  <!-- Center tall tower -->
  <rect x="230" y="80" width="35" height="220" fill="url(#bldg1)"/>
  <!-- Tower top detail -->
  <rect x="238" y="68" width="19" height="14" fill="#162535"/>
  <rect x="245" y="58" width="5" height="12" fill="#1a2f45"/>
  <rect x="232" y="88" width="7" height="5" fill="#2ec4d6" opacity="0.7"/>
  <rect x="244" y="88" width="7" height="5" fill="#f5d26a" opacity="0.6"/>
  <rect x="256" y="88" width="7" height="5" fill="#2ec4d6" opacity="0.5"/>
  <rect x="232" y="102" width="7" height="5" fill="#f5d26a" opacity="0.4"/>
  <rect x="244" y="102" width="7" height="5" fill="#2ec4d6" opacity="0.55"/>
  <rect x="256" y="102" width="7" height="5" fill="#f5d26a" opacity="0.45"/>
  <rect x="232" y="116" width="7" height="5" fill="#2ec4d6" opacity="0.5"/>
  <rect x="256" y="116" width="7" height="5" fill="#2ec4d6" opacity="0.4"/>
  <rect x="244" y="130" width="7" height="5" fill="#f5d26a" opacity="0.6"/>
  <rect x="232" y="144" width="7" height="5" fill="#2ec4d6" opacity="0.35"/>
  <rect x="256" y="144" width="7" height="5" fill="#f5d26a" opacity="0.4"/>

  <!-- Right side buildings -->
  <rect x="262" y="145" width="50" height="155" fill="url(#bldg2)"/>
  <rect x="270" y="155" width="8" height="6" fill="#2ec4d6" opacity="0.55"/>
  <rect x="284" y="155" width="8" height="6" fill="#f5d26a" opacity="0.5"/>
  <rect x="298" y="155" width="8" height="6" fill="#2ec4d6" opacity="0.45"/>
  <rect x="270" y="170" width="8" height="6" fill="#f5d26a" opacity="0.4"/>
  <rect x="284" y="170" width="8" height="6" fill="#2ec4d6" opacity="0.5"/>
  <rect x="298" y="170" width="8" height="6" fill="#f5d26a" opacity="0.4"/>
  <rect x="270" y="185" width="8" height="6" fill="#2ec4d6" opacity="0.35"/>
  <rect x="298" y="185" width="8" height="6" fill="#f5d26a" opacity="0.45"/>

  <rect x="308" y="120" width="65" height="180" fill="url(#bldg1)"/>
  <rect x="316" y="130" width="10" height="8" fill="#f5d26a" opacity="0.55"/>
  <rect x="332" y="130" width="10" height="8" fill="#2ec4d6" opacity="0.6"/>
  <rect x="350" y="130" width="10" height="8" fill="#f5d26a" opacity="0.5"/>
  <rect x="316" y="148" width="10" height="8" fill="#2ec4d6" opacity="0.5"/>
  <rect x="332" y="148" width="10" height="8" fill="#f5d26a" opacity="0.45"/>
  <rect x="350" y="148" width="10" height="8" fill="#2ec4d6" opacity="0.4"/>
  <rect x="316" y="166" width="10" height="8" fill="#f5d26a" opacity="0.4"/>
  <rect x="350" y="166" width="10" height="8" fill="#f5d26a" opacity="0.5"/>
  <rect x="332" y="184" width="10" height="8" fill="#2ec4d6" opacity="0.55"/>
  <rect x="316" y="202" width="10" height="8" fill="#f5d26a" opacity="0.35"/>

  <rect x="368" y="155" width="42" height="145" fill="url(#bldg2)"/>
  <rect x="376" y="163" width="8" height="6" fill="#2ec4d6" opacity="0.5"/>
  <rect x="390" y="163" width="8" height="6" fill="#f5d26a" opacity="0.45"/>
  <rect x="376" y="178" width="8" height="6" fill="#f5d26a" opacity="0.4"/>
  <rect x="390" y="178" width="8" height="6" fill="#2ec4d6" opacity="0.5"/>
  <rect x="376" y="193" width="8" height="6" fill="#2ec4d6" opacity="0.35"/>

  <!-- Bridge / middle distance -->
  <rect x="405" y="175" width="90" height="10" fill="#162535" opacity="0.8"/>
  <line x1="410" y1="165" x2="415" y2="185" stroke="#1a3045" stroke-width="1.5"/>
  <line x1="430" y1="162" x2="435" y2="185" stroke="#1a3045" stroke-width="1.5"/>
  <line x1="450" y1="160" x2="455" y2="185" stroke="#1a3045" stroke-width="1.5"/>
  <line x1="470" y1="162" x2="475" y2="185" stroke="#1a3045" stroke-width="1.5"/>
  <line x1="488" y1="165" x2="492" y2="185" stroke="#1a3045" stroke-width="1.5"/>

  <!-- Far right cluster -->
  <rect x="800" y="140" width="55" height="160" fill="url(#bldg1)"/>
  <rect x="808" y="150" width="9" height="7" fill="#f5d26a" opacity="0.5"/>
  <rect x="823" y="150" width="9" height="7" fill="#2ec4d6" opacity="0.55"/>
  <rect x="838" y="150" width="9" height="7" fill="#f5d26a" opacity="0.4"/>
  <rect x="808" y="167" width="9" height="7" fill="#2ec4d6" opacity="0.45"/>
  <rect x="838" y="167" width="9" height="7" fill="#f5d26a" opacity="0.5"/>
  <rect x="823" y="184" width="9" height="7" fill="#2ec4d6" opacity="0.4"/>
  <rect x="808" y="201" width="9" height="7" fill="#f5d26a" opacity="0.35"/>

  <rect x="850" y="115" width="70" height="185" fill="url(#bldg2)"/>
  <rect x="860" y="125" width="10" height="8" fill="#2ec4d6" opacity="0.6"/>
  <rect x="876" y="125" width="10" height="8" fill="#f5d26a" opacity="0.55"/>
  <rect x="894" y="125" width="10" height="8" fill="#2ec4d6" opacity="0.5"/>
  <rect x="860" y="143" width="10" height="8" fill="#f5d26a" opacity="0.5"/>
  <rect x="876" y="143" width="10" height="8" fill="#2ec4d6" opacity="0.55"/>
  <rect x="894" y="143" width="10" height="8" fill="#f5d26a" opacity="0.4"/>
  <rect x="860" y="161" width="10" height="8" fill="#2ec4d6" opacity="0.4"/>
  <rect x="894" y="161" width="10" height="8" fill="#2ec4d6" opacity="0.45"/>
  <rect x="876" y="179" width="10" height="8" fill="#f5d26a" opacity="0.55"/>
  <rect x="860" y="197" width="10" height="8" fill="#f5d26a" opacity="0.35"/>

  <!-- Antenna on tall center-right tower -->
  <rect x="870" y="100" width="5" height="17" fill="#2a3f55"/>

  <rect x="916" y="150" width="48" height="150" fill="url(#bldg1)"/>
  <rect x="924" y="160" width="8" height="6" fill="#f5d26a" opacity="0.5"/>
  <rect x="938" y="160" width="8" height="6" fill="#2ec4d6" opacity="0.55"/>
  <rect x="924" y="175" width="8" height="6" fill="#2ec4d6" opacity="0.45"/>
  <rect x="938" y="175" width="8" height="6" fill="#f5d26a" opacity="0.4"/>
  <rect x="924" y="190" width="8" height="6" fill="#f5d26a" opacity="0.35"/>
  <rect x="938" y="190" width="8" height="6" fill="#2ec4d6" opacity="0.4"/>

  <rect x="960" y="135" width="60" height="165" fill="url(#bldg2)"/>
  <rect x="968" y="145" width="9" height="7" fill="#2ec4d6" opacity="0.6"/>
  <rect x="983" y="145" width="9" height="7" fill="#f5d26a" opacity="0.5"/>
  <rect x="1000" y="145" width="9" height="7" fill="#2ec4d6" opacity="0.45"/>
  <rect x="968" y="162" width="9" height="7" fill="#f5d26a" opacity="0.45"/>
  <rect x="983" y="162" width="9" height="7" fill="#2ec4d6" opacity="0.5"/>
  <rect x="1000" y="162" width="9" height="7" fill="#f5d26a" opacity="0.4"/>
  <rect x="968" y="179" width="9" height="7" fill="#2ec4d6" opacity="0.35"/>
  <rect x="1000" y="179" width="9" height="7" fill="#f5d26a" opacity="0.45"/>
  <rect x="983" y="196" width="9" height="7" fill="#2ec4d6" opacity="0.5"/>

  <rect x="1016" y="160" width="45" height="140" fill="url(#bldg1)"/>
  <rect x="1024" y="170" width="8" height="6" fill="#f5d26a" opacity="0.5"/>
  <rect x="1038" y="170" width="8" height="6" fill="#2ec4d6" opacity="0.5"/>
  <rect x="1024" y="185" width="8" height="6" fill="#2ec4d6" opacity="0.4"/>
  <rect x="1038" y="185" width="8" height="6" fill="#f5d26a" opacity="0.45"/>
  <rect x="1024" y="200" width="8" height="6" fill="#f5d26a" opacity="0.35"/>

  <rect x="1055" y="145" width="50" height="155" fill="url(#bldg2)"/>
  <rect x="1063" y="155" width="9" height="7" fill="#2ec4d6" opacity="0.55"/>
  <rect x="1078" y="155" width="9" height="7" fill="#f5d26a" opacity="0.5"/>
  <rect x="1063" y="172" width="9" height="7" fill="#f5d26a" opacity="0.45"/>
  <rect x="1078" y="172" width="9" height="7" fill="#2ec4d6" opacity="0.5"/>
  <rect x="1063" y="189" width="9" height="7" fill="#2ec4d6" opacity="0.4"/>
  <rect x="1078" y="189" width="9" height="7" fill="#f5d26a" opacity="0.35"/>

  <rect x="1100" y="170" width="40" height="130" fill="url(#bldg1)"/>
  <rect x="1108" y="180" width="8" height="6" fill="#f5d26a" opacity="0.5"/>
  <rect x="1122" y="180" width="8" height="6" fill="#2ec4d6" opacity="0.5"/>
  <rect x="1108" y="195" width="8" height="6" fill="#2ec4d6" opacity="0.4"/>
  <rect x="1122" y="195" width="8" height="6" fill="#f5d26a" opacity="0.45"/>

  <rect x="1135" y="180" width="65" height="120" fill="url(#bldg2)"/>
  <rect x="1143" y="190" width="8" height="6" fill="#2ec4d6" opacity="0.5"/>
  <rect x="1157" y="190" width="8" height="6" fill="#f5d26a" opacity="0.45"/>
  <rect x="1143" y="205" width="8" height="6" fill="#f5d26a" opacity="0.4"/>
  <rect x="1157" y="205" width="8" height="6" fill="#2ec4d6" opacity="0.45"/>
  <rect x="1143" y="220" width="8" height="6" fill="#2ec4d6" opacity="0.35"/>

  <!-- Waterfront/foreground dark strip -->
  <rect x="0" y="270" width="1200" height="30" fill="#0a1520"/>
  <!-- Water reflections -->
  <rect x="30" y="275" width="60" height="3" fill="#2ec4d6" opacity="0.2" rx="1"/>
  <rect x="200" y="278" width="40" height="2" fill="#2ec4d6" opacity="0.15" rx="1"/>
  <rect x="500" y="276" width="80" height="2" fill="#2ec4d6" opacity="0.18" rx="1"/>
  <rect x="750" y="279" width="50" height="2" fill="#f5d26a" opacity="0.12" rx="1"/>
  <rect x="1000" y="277" width="70" height="2" fill="#2ec4d6" opacity="0.15" rx="1"/>
</svg>
